<mxfile host="app.diagrams.net" modified="2021-04-28T02:32:11.629Z" agent="5.0 (X11; Linux x86_64) AppleWebKit/537.36 (KHTML, like Gecko) Chrome/90.0.4430.85 Safari/537.36" etag="L8B7FePH3tv4PiyoKJnh" version="14.6.6" type="github">
  <diagram id="7ANIOUn_krvU9Xedr7yc" name="Page-1">
    <mxGraphModel dx="959" dy="580" grid="0" gridSize="10" guides="1" tooltips="1" connect="1" arrows="1" fold="1" page="1" pageScale="1" pageWidth="850" pageHeight="1100" background="#ffffff" math="0" shadow="0">
      <root>
        <mxCell id="0" />
        <mxCell id="1" parent="0" />
        <mxCell id="ftb0WjT8zHPhlksNMME--1" value="Quản lý điểm học sinh tiểu học" style="rounded=0;whiteSpace=wrap;html=1;" vertex="1" parent="1">
          <mxGeometry x="365" y="46" width="120" height="60" as="geometry" />
        </mxCell>
        <mxCell id="ftb0WjT8zHPhlksNMME--2" value="Quản lý truy cập hệ thống" style="rounded=0;whiteSpace=wrap;html=1;" vertex="1" parent="1">
          <mxGeometry x="25" y="173" width="120" height="60" as="geometry" />
        </mxCell>
        <mxCell id="ftb0WjT8zHPhlksNMME--3" value="Quản lý điểm học sinh tiểu học" style="rounded=0;whiteSpace=wrap;html=1;" vertex="1" parent="1">
          <mxGeometry x="194" y="173" width="120" height="60" as="geometry" />
        </mxCell>
        <mxCell id="ftb0WjT8zHPhlksNMME--4" value="Quản lý điểm học sinh tiểu học" style="rounded=0;whiteSpace=wrap;html=1;" vertex="1" parent="1">
          <mxGeometry x="365" y="173" width="120" height="60" as="geometry" />
        </mxCell>
        <mxCell id="ftb0WjT8zHPhlksNMME--5" value="Quản lý điểm học sinh tiểu học" style="rounded=0;whiteSpace=wrap;html=1;" vertex="1" parent="1">
          <mxGeometry x="535" y="173" width="120" height="60" as="geometry" />
        </mxCell>
        <mxCell id="ftb0WjT8zHPhlksNMME--6" value="Trợ giúp" style="rounded=0;whiteSpace=wrap;html=1;" vertex="1" parent="1">
          <mxGeometry x="705" y="173" width="120" height="60" as="geometry" />
        </mxCell>
        <mxCell id="ftb0WjT8zHPhlksNMME--7" value="Thay đổi mật khẩu quản trị" style="rounded=0;whiteSpace=wrap;html=1;" vertex="1" parent="1">
          <mxGeometry x="74" y="271" width="120" height="60" as="geometry" />
        </mxCell>
        <mxCell id="ftb0WjT8zHPhlksNMME--8" value="Thêm người dùng mới" style="rounded=0;whiteSpace=wrap;html=1;" vertex="1" parent="1">
          <mxGeometry x="74" y="369" width="120" height="60" as="geometry" />
        </mxCell>
        <mxCell id="ftb0WjT8zHPhlksNMME--9" value="Xóa người dùng" style="rounded=0;whiteSpace=wrap;html=1;" vertex="1" parent="1">
          <mxGeometry x="74" y="467" width="120" height="60" as="geometry" />
        </mxCell>
        <mxCell id="ftb0WjT8zHPhlksNMME--10" value="Thay đổi thông tin người dùng" style="rounded=0;whiteSpace=wrap;html=1;" vertex="1" parent="1">
          <mxGeometry x="74" y="564" width="120" height="60" as="geometry" />
        </mxCell>
        <mxCell id="ftb0WjT8zHPhlksNMME--11" value="Thay đổi quyền người dùng" style="rounded=0;whiteSpace=wrap;html=1;" vertex="1" parent="1">
          <mxGeometry x="74" y="661" width="120" height="60" as="geometry" />
        </mxCell>
        <mxCell id="ftb0WjT8zHPhlksNMME--12" value="" style="endArrow=none;html=1;entryX=0.5;entryY=1;entryDx=0;entryDy=0;exitX=0.5;exitY=0;exitDx=0;exitDy=0;" edge="1" parent="1" source="ftb0WjT8zHPhlksNMME--4" target="ftb0WjT8zHPhlksNMME--1">
          <mxGeometry width="50" height="50" relative="1" as="geometry">
            <mxPoint x="412" y="369" as="sourcePoint" />
            <mxPoint x="462" y="319" as="targetPoint" />
          </mxGeometry>
        </mxCell>
        <mxCell id="ftb0WjT8zHPhlksNMME--17" value="" style="endArrow=none;html=1;entryX=0.124;entryY=1.019;entryDx=0;entryDy=0;entryPerimeter=0;" edge="1" parent="1" target="ftb0WjT8zHPhlksNMME--2">
          <mxGeometry width="50" height="50" relative="1" as="geometry">
            <mxPoint x="40" y="692" as="sourcePoint" />
            <mxPoint x="462" y="444" as="targetPoint" />
          </mxGeometry>
        </mxCell>
        <mxCell id="ftb0WjT8zHPhlksNMME--18" value="" style="endArrow=none;html=1;exitX=0;exitY=0.5;exitDx=0;exitDy=0;" edge="1" parent="1" source="ftb0WjT8zHPhlksNMME--11">
          <mxGeometry width="50" height="50" relative="1" as="geometry">
            <mxPoint x="412" y="619" as="sourcePoint" />
            <mxPoint x="40" y="691" as="targetPoint" />
          </mxGeometry>
        </mxCell>
        <mxCell id="ftb0WjT8zHPhlksNMME--19" value="" style="endArrow=none;html=1;exitX=0;exitY=0.5;exitDx=0;exitDy=0;" edge="1" parent="1" source="ftb0WjT8zHPhlksNMME--10">
          <mxGeometry width="50" height="50" relative="1" as="geometry">
            <mxPoint x="412" y="619" as="sourcePoint" />
            <mxPoint x="41" y="594" as="targetPoint" />
          </mxGeometry>
        </mxCell>
        <mxCell id="ftb0WjT8zHPhlksNMME--20" value="" style="endArrow=none;html=1;exitX=0;exitY=0.5;exitDx=0;exitDy=0;" edge="1" parent="1">
          <mxGeometry width="50" height="50" relative="1" as="geometry">
            <mxPoint x="74" y="496.40999999999997" as="sourcePoint" />
            <mxPoint x="41" y="496.40999999999997" as="targetPoint" />
          </mxGeometry>
        </mxCell>
        <mxCell id="ftb0WjT8zHPhlksNMME--21" value="" style="endArrow=none;html=1;exitX=0;exitY=0.5;exitDx=0;exitDy=0;" edge="1" parent="1">
          <mxGeometry width="50" height="50" relative="1" as="geometry">
            <mxPoint x="74" y="496.40999999999985" as="sourcePoint" />
            <mxPoint x="41" y="496.40999999999985" as="targetPoint" />
          </mxGeometry>
        </mxCell>
        <mxCell id="ftb0WjT8zHPhlksNMME--22" value="" style="endArrow=none;html=1;exitX=0;exitY=0.5;exitDx=0;exitDy=0;" edge="1" parent="1">
          <mxGeometry width="50" height="50" relative="1" as="geometry">
            <mxPoint x="74" y="398.40999999999985" as="sourcePoint" />
            <mxPoint x="41" y="398.40999999999985" as="targetPoint" />
          </mxGeometry>
        </mxCell>
        <mxCell id="ftb0WjT8zHPhlksNMME--23" value="" style="endArrow=none;html=1;exitX=0;exitY=0.5;exitDx=0;exitDy=0;" edge="1" parent="1">
          <mxGeometry width="50" height="50" relative="1" as="geometry">
            <mxPoint x="74" y="300.40999999999985" as="sourcePoint" />
            <mxPoint x="41" y="300.40999999999985" as="targetPoint" />
          </mxGeometry>
        </mxCell>
        <mxCell id="ftb0WjT8zHPhlksNMME--24" value="" style="endArrow=none;html=1;" edge="1" parent="1">
          <mxGeometry width="50" height="50" relative="1" as="geometry">
            <mxPoint x="85" y="145" as="sourcePoint" />
            <mxPoint x="765" y="145" as="targetPoint" />
          </mxGeometry>
        </mxCell>
        <mxCell id="ftb0WjT8zHPhlksNMME--25" value="" style="endArrow=none;html=1;exitX=0.5;exitY=0;exitDx=0;exitDy=0;" edge="1" parent="1" source="ftb0WjT8zHPhlksNMME--2">
          <mxGeometry width="50" height="50" relative="1" as="geometry">
            <mxPoint x="412" y="307" as="sourcePoint" />
            <mxPoint x="85" y="147" as="targetPoint" />
          </mxGeometry>
        </mxCell>
        <mxCell id="ftb0WjT8zHPhlksNMME--26" value="" style="endArrow=none;html=1;exitX=0.5;exitY=0;exitDx=0;exitDy=0;" edge="1" parent="1">
          <mxGeometry width="50" height="50" relative="1" as="geometry">
            <mxPoint x="253.41" y="173" as="sourcePoint" />
            <mxPoint x="253.41" y="146.9999999999999" as="targetPoint" />
          </mxGeometry>
        </mxCell>
        <mxCell id="ftb0WjT8zHPhlksNMME--27" value="" style="endArrow=none;html=1;exitX=0.5;exitY=0;exitDx=0;exitDy=0;" edge="1" parent="1">
          <mxGeometry width="50" height="50" relative="1" as="geometry">
            <mxPoint x="594.4100000000001" y="173" as="sourcePoint" />
            <mxPoint x="594.4100000000001" y="146.9999999999999" as="targetPoint" />
          </mxGeometry>
        </mxCell>
        <mxCell id="ftb0WjT8zHPhlksNMME--28" value="" style="endArrow=none;html=1;exitX=0.5;exitY=0;exitDx=0;exitDy=0;" edge="1" parent="1">
          <mxGeometry width="50" height="50" relative="1" as="geometry">
            <mxPoint x="764.41" y="173" as="sourcePoint" />
            <mxPoint x="764.41" y="146.9999999999999" as="targetPoint" />
          </mxGeometry>
        </mxCell>
        <mxCell id="ftb0WjT8zHPhlksNMME--29" value="Thay đổi mật khẩu quản trị" style="rounded=0;whiteSpace=wrap;html=1;" vertex="1" parent="1">
          <mxGeometry x="245" y="271" width="120" height="60" as="geometry" />
        </mxCell>
        <mxCell id="ftb0WjT8zHPhlksNMME--30" value="Thay đổi mật khẩu quản trị" style="rounded=0;whiteSpace=wrap;html=1;" vertex="1" parent="1">
          <mxGeometry x="245" y="369" width="120" height="60" as="geometry" />
        </mxCell>
        <mxCell id="ftb0WjT8zHPhlksNMME--31" value="Thay đổi mật khẩu quản trị" style="rounded=0;whiteSpace=wrap;html=1;" vertex="1" parent="1">
          <mxGeometry x="245" y="467" width="120" height="60" as="geometry" />
        </mxCell>
        <mxCell id="ftb0WjT8zHPhlksNMME--32" value="Thay đổi mật khẩu quản trị" style="rounded=0;whiteSpace=wrap;html=1;" vertex="1" parent="1">
          <mxGeometry x="245" y="564" width="120" height="60" as="geometry" />
        </mxCell>
        <mxCell id="ftb0WjT8zHPhlksNMME--33" value="Thay đổi mật khẩu quản trị" style="rounded=0;whiteSpace=wrap;html=1;" vertex="1" parent="1">
          <mxGeometry x="245" y="661" width="120" height="60" as="geometry" />
        </mxCell>
        <mxCell id="ftb0WjT8zHPhlksNMME--34" value="Thay đổi mật khẩu quản trị" style="rounded=0;whiteSpace=wrap;html=1;" vertex="1" parent="1">
          <mxGeometry x="245" y="758" width="120" height="60" as="geometry" />
        </mxCell>
        <mxCell id="ftb0WjT8zHPhlksNMME--35" value="Thay đổi mật khẩu quản trị" style="rounded=0;whiteSpace=wrap;html=1;" vertex="1" parent="1">
          <mxGeometry x="415" y="271" width="120" height="60" as="geometry" />
        </mxCell>
        <mxCell id="ftb0WjT8zHPhlksNMME--36" value="Thay đổi mật khẩu quản trị" style="rounded=0;whiteSpace=wrap;html=1;" vertex="1" parent="1">
          <mxGeometry x="415" y="369" width="120" height="60" as="geometry" />
        </mxCell>
        <mxCell id="ftb0WjT8zHPhlksNMME--37" value="Thay đổi mật khẩu quản trị" style="rounded=0;whiteSpace=wrap;html=1;" vertex="1" parent="1">
          <mxGeometry x="415" y="467" width="120" height="60" as="geometry" />
        </mxCell>
        <mxCell id="ftb0WjT8zHPhlksNMME--38" value="Thay đổi mật khẩu quản trị" style="rounded=0;whiteSpace=wrap;html=1;" vertex="1" parent="1">
          <mxGeometry x="415" y="564" width="120" height="60" as="geometry" />
        </mxCell>
        <mxCell id="ftb0WjT8zHPhlksNMME--39" value="Thay đổi mật khẩu quản trị" style="rounded=0;whiteSpace=wrap;html=1;" vertex="1" parent="1">
          <mxGeometry x="415" y="661" width="120" height="60" as="geometry" />
        </mxCell>
        <mxCell id="ftb0WjT8zHPhlksNMME--40" value="Thay đổi mật khẩu quản trị" style="rounded=0;whiteSpace=wrap;html=1;" vertex="1" parent="1">
          <mxGeometry x="415" y="758" width="120" height="60" as="geometry" />
        </mxCell>
        <mxCell id="ftb0WjT8zHPhlksNMME--42" value="Thay đổi mật khẩu quản trị" style="rounded=0;whiteSpace=wrap;html=1;" vertex="1" parent="1">
          <mxGeometry x="585" y="271" width="120" height="60" as="geometry" />
        </mxCell>
        <mxCell id="ftb0WjT8zHPhlksNMME--43" value="Thay đổi mật khẩu quản trị" style="rounded=0;whiteSpace=wrap;html=1;" vertex="1" parent="1">
          <mxGeometry x="585" y="369" width="120" height="60" as="geometry" />
        </mxCell>
        <mxCell id="ftb0WjT8zHPhlksNMME--44" value="Thay đổi mật khẩu quản trị" style="rounded=0;whiteSpace=wrap;html=1;" vertex="1" parent="1">
          <mxGeometry x="585" y="467" width="120" height="60" as="geometry" />
        </mxCell>
        <mxCell id="ftb0WjT8zHPhlksNMME--45" value="Thay đổi mật khẩu quản trị" style="rounded=0;whiteSpace=wrap;html=1;" vertex="1" parent="1">
          <mxGeometry x="585" y="564" width="120" height="60" as="geometry" />
        </mxCell>
        <mxCell id="ftb0WjT8zHPhlksNMME--46" value="Thay đổi mật khẩu quản trị" style="rounded=0;whiteSpace=wrap;html=1;" vertex="1" parent="1">
          <mxGeometry x="585" y="661" width="120" height="60" as="geometry" />
        </mxCell>
        <mxCell id="ftb0WjT8zHPhlksNMME--47" value="Thay đổi mật khẩu quản trị" style="rounded=0;whiteSpace=wrap;html=1;" vertex="1" parent="1">
          <mxGeometry x="585" y="758" width="120" height="60" as="geometry" />
        </mxCell>
        <mxCell id="ftb0WjT8zHPhlksNMME--49" value="" style="endArrow=none;html=1;entryX=0.124;entryY=1.019;entryDx=0;entryDy=0;entryPerimeter=0;" edge="1" parent="1">
          <mxGeometry width="50" height="50" relative="1" as="geometry">
            <mxPoint x="211" y="791" as="sourcePoint" />
            <mxPoint x="210.88" y="233" as="targetPoint" />
          </mxGeometry>
        </mxCell>
        <mxCell id="ftb0WjT8zHPhlksNMME--50" value="" style="endArrow=none;html=1;exitX=0;exitY=0.5;exitDx=0;exitDy=0;" edge="1" parent="1">
          <mxGeometry width="50" height="50" relative="1" as="geometry">
            <mxPoint x="245" y="689.86" as="sourcePoint" />
            <mxPoint x="211" y="689.86" as="targetPoint" />
          </mxGeometry>
        </mxCell>
        <mxCell id="ftb0WjT8zHPhlksNMME--51" value="" style="endArrow=none;html=1;exitX=0;exitY=0.5;exitDx=0;exitDy=0;" edge="1" parent="1">
          <mxGeometry width="50" height="50" relative="1" as="geometry">
            <mxPoint x="245" y="592.86" as="sourcePoint" />
            <mxPoint x="212" y="592.86" as="targetPoint" />
          </mxGeometry>
        </mxCell>
        <mxCell id="ftb0WjT8zHPhlksNMME--52" value="" style="endArrow=none;html=1;exitX=0;exitY=0.5;exitDx=0;exitDy=0;" edge="1" parent="1">
          <mxGeometry width="50" height="50" relative="1" as="geometry">
            <mxPoint x="245" y="495.26999999999987" as="sourcePoint" />
            <mxPoint x="212" y="495.26999999999987" as="targetPoint" />
          </mxGeometry>
        </mxCell>
        <mxCell id="ftb0WjT8zHPhlksNMME--53" value="" style="endArrow=none;html=1;exitX=0;exitY=0.5;exitDx=0;exitDy=0;" edge="1" parent="1">
          <mxGeometry width="50" height="50" relative="1" as="geometry">
            <mxPoint x="245" y="397.26999999999987" as="sourcePoint" />
            <mxPoint x="212" y="397.26999999999987" as="targetPoint" />
          </mxGeometry>
        </mxCell>
        <mxCell id="ftb0WjT8zHPhlksNMME--54" value="" style="endArrow=none;html=1;exitX=0;exitY=0.5;exitDx=0;exitDy=0;" edge="1" parent="1">
          <mxGeometry width="50" height="50" relative="1" as="geometry">
            <mxPoint x="245" y="299.26999999999987" as="sourcePoint" />
            <mxPoint x="212" y="299.26999999999987" as="targetPoint" />
          </mxGeometry>
        </mxCell>
        <mxCell id="ftb0WjT8zHPhlksNMME--55" value="" style="endArrow=none;html=1;entryX=0.124;entryY=1.019;entryDx=0;entryDy=0;entryPerimeter=0;" edge="1" parent="1">
          <mxGeometry width="50" height="50" relative="1" as="geometry">
            <mxPoint x="381" y="786" as="sourcePoint" />
            <mxPoint x="380.88" y="233" as="targetPoint" />
          </mxGeometry>
        </mxCell>
        <mxCell id="ftb0WjT8zHPhlksNMME--56" value="" style="endArrow=none;html=1;exitX=0;exitY=0.5;exitDx=0;exitDy=0;" edge="1" parent="1">
          <mxGeometry width="50" height="50" relative="1" as="geometry">
            <mxPoint x="415" y="689.86" as="sourcePoint" />
            <mxPoint x="381" y="689.86" as="targetPoint" />
          </mxGeometry>
        </mxCell>
        <mxCell id="ftb0WjT8zHPhlksNMME--57" value="" style="endArrow=none;html=1;exitX=0;exitY=0.5;exitDx=0;exitDy=0;" edge="1" parent="1">
          <mxGeometry width="50" height="50" relative="1" as="geometry">
            <mxPoint x="415" y="592.86" as="sourcePoint" />
            <mxPoint x="382" y="592.86" as="targetPoint" />
          </mxGeometry>
        </mxCell>
        <mxCell id="ftb0WjT8zHPhlksNMME--58" value="" style="endArrow=none;html=1;exitX=0;exitY=0.5;exitDx=0;exitDy=0;" edge="1" parent="1">
          <mxGeometry width="50" height="50" relative="1" as="geometry">
            <mxPoint x="415" y="495.26999999999987" as="sourcePoint" />
            <mxPoint x="382" y="495.26999999999987" as="targetPoint" />
          </mxGeometry>
        </mxCell>
        <mxCell id="ftb0WjT8zHPhlksNMME--59" value="" style="endArrow=none;html=1;exitX=0;exitY=0.5;exitDx=0;exitDy=0;" edge="1" parent="1">
          <mxGeometry width="50" height="50" relative="1" as="geometry">
            <mxPoint x="415" y="397.26999999999987" as="sourcePoint" />
            <mxPoint x="382" y="397.26999999999987" as="targetPoint" />
          </mxGeometry>
        </mxCell>
        <mxCell id="ftb0WjT8zHPhlksNMME--60" value="" style="endArrow=none;html=1;exitX=0;exitY=0.5;exitDx=0;exitDy=0;" edge="1" parent="1">
          <mxGeometry width="50" height="50" relative="1" as="geometry">
            <mxPoint x="415" y="299.26999999999987" as="sourcePoint" />
            <mxPoint x="382" y="299.26999999999987" as="targetPoint" />
          </mxGeometry>
        </mxCell>
        <mxCell id="ftb0WjT8zHPhlksNMME--61" value="" style="endArrow=none;html=1;entryX=0.124;entryY=1.019;entryDx=0;entryDy=0;entryPerimeter=0;" edge="1" parent="1">
          <mxGeometry width="50" height="50" relative="1" as="geometry">
            <mxPoint x="551" y="792" as="sourcePoint" />
            <mxPoint x="550.88" y="233" as="targetPoint" />
          </mxGeometry>
        </mxCell>
        <mxCell id="ftb0WjT8zHPhlksNMME--62" value="" style="endArrow=none;html=1;exitX=0;exitY=0.5;exitDx=0;exitDy=0;" edge="1" parent="1">
          <mxGeometry width="50" height="50" relative="1" as="geometry">
            <mxPoint x="585" y="689.86" as="sourcePoint" />
            <mxPoint x="551" y="689.86" as="targetPoint" />
          </mxGeometry>
        </mxCell>
        <mxCell id="ftb0WjT8zHPhlksNMME--63" value="" style="endArrow=none;html=1;exitX=0;exitY=0.5;exitDx=0;exitDy=0;" edge="1" parent="1">
          <mxGeometry width="50" height="50" relative="1" as="geometry">
            <mxPoint x="585" y="592.86" as="sourcePoint" />
            <mxPoint x="552" y="592.86" as="targetPoint" />
          </mxGeometry>
        </mxCell>
        <mxCell id="ftb0WjT8zHPhlksNMME--64" value="" style="endArrow=none;html=1;exitX=0;exitY=0.5;exitDx=0;exitDy=0;" edge="1" parent="1">
          <mxGeometry width="50" height="50" relative="1" as="geometry">
            <mxPoint x="585" y="495.26999999999987" as="sourcePoint" />
            <mxPoint x="552" y="495.26999999999987" as="targetPoint" />
          </mxGeometry>
        </mxCell>
        <mxCell id="ftb0WjT8zHPhlksNMME--65" value="" style="endArrow=none;html=1;exitX=0;exitY=0.5;exitDx=0;exitDy=0;" edge="1" parent="1">
          <mxGeometry width="50" height="50" relative="1" as="geometry">
            <mxPoint x="585" y="397.26999999999987" as="sourcePoint" />
            <mxPoint x="552" y="397.26999999999987" as="targetPoint" />
          </mxGeometry>
        </mxCell>
        <mxCell id="ftb0WjT8zHPhlksNMME--66" value="" style="endArrow=none;html=1;exitX=0;exitY=0.5;exitDx=0;exitDy=0;" edge="1" parent="1">
          <mxGeometry width="50" height="50" relative="1" as="geometry">
            <mxPoint x="585" y="299.26999999999987" as="sourcePoint" />
            <mxPoint x="552" y="299.26999999999987" as="targetPoint" />
          </mxGeometry>
        </mxCell>
        <mxCell id="ftb0WjT8zHPhlksNMME--68" value="" style="endArrow=none;html=1;exitX=0;exitY=0.5;exitDx=0;exitDy=0;" edge="1" parent="1">
          <mxGeometry width="50" height="50" relative="1" as="geometry">
            <mxPoint x="245" y="787.4100000000001" as="sourcePoint" />
            <mxPoint x="211" y="787.4100000000001" as="targetPoint" />
          </mxGeometry>
        </mxCell>
        <mxCell id="ftb0WjT8zHPhlksNMME--69" value="" style="endArrow=none;html=1;exitX=0;exitY=0.5;exitDx=0;exitDy=0;" edge="1" parent="1">
          <mxGeometry width="50" height="50" relative="1" as="geometry">
            <mxPoint x="415" y="787.4100000000001" as="sourcePoint" />
            <mxPoint x="381" y="787.4100000000001" as="targetPoint" />
          </mxGeometry>
        </mxCell>
        <mxCell id="ftb0WjT8zHPhlksNMME--70" value="" style="endArrow=none;html=1;exitX=0;exitY=0.5;exitDx=0;exitDy=0;" edge="1" parent="1">
          <mxGeometry width="50" height="50" relative="1" as="geometry">
            <mxPoint x="585" y="787.4100000000001" as="sourcePoint" />
            <mxPoint x="551" y="787.4100000000001" as="targetPoint" />
          </mxGeometry>
        </mxCell>
      </root>
    </mxGraphModel>
  </diagram>
</mxfile>
